Coordinates
version=1
nRows=15
nColumns=46
inDegrees=yes

Units are S.I. units (second, meters, Newtons, ...)
Angles are in degrees.

endheader
time	pelvis_tilt	pelvis_list	pelvis_rotation	pelvis_tx	pelvis_ty	pelvis_tz	bb_angle	bb_tx	bb_ty	bb_tz	hip_flexion_r	hip_adduction_r	hip_rotation_r	knee_angle_r	knee_angle_r_beta	ankle_angle_r	subtalar_angle_r	mtp_angle_r	crank_angle_r	hip_flexion_l	hip_adduction_l	hip_rotation_l	knee_angle_l	knee_angle_l_beta	ankle_angle_l	subtalar_angle_l	mtp_angle_l	crank_angle_l	lumbar_extension	lumbar_bending	lumbar_rotation	arm_flex_r	arm_add_r	arm_rot_r	elbow_flex_r	pro_sup_r	wrist_flex_r	wrist_dev_r	arm_flex_l	arm_add_l	arm_rot_l	elbow_flex_l	pro_sup_l	wrist_flex_l	wrist_dev_l
      2.50500000	    -13.48351642	      7.11883470	      7.23618223	      0.18789696	      1.06064048	     -0.23047158	      0.00000000	      0.50000000	      0.00000000	      0.25000000	     46.70573212	    -10.74526413	      9.18569191	     38.84459274	      0.67796604	     -8.73529890	    -10.96233453	      0.00000000	      0.00000000	     67.86054424	      1.46024620	      0.90363270	    108.45149067	      1.89283559	      6.51335167	     -2.28214314	      0.00000000	      0.00000000	    -65.28018312	      4.75910853	     -6.97983239	     80.72357065	    -11.41877578	     16.50851227	     71.58724476	     46.44534314	      0.00000000	      0.00000000	     80.62056610	    -23.01884640	     21.14566972	     69.96182141	     45.76079144	      0.00000000	      0.00000000
      2.51000000	    -13.45106629	      7.17103899	      7.44513833	      0.18734888	      1.06077418	     -0.23065757	      0.00000000	      0.50000000	      0.00000000	      0.25000000	     46.03895759	    -10.97681398	      8.94276904	     38.00951906	      0.66339125	    -10.05007424	    -11.03467071	      0.00000000	      0.00000000	     68.60417772	      1.68432612	      1.03507747	    109.16940743	      1.90536560	      7.04757436	     -1.93341081	      0.00000000	      0.00000000	    -65.15733567	      4.40281312	     -7.03563889	     80.49567599	    -12.05270978	     16.22472531	     71.26683770	     46.48805139	      0.00000000	      0.00000000	     80.95426357	    -22.28043325	     21.75242429	     69.62042190	     45.77078748	      0.00000000	      0.00000000
      2.51500000	    -13.57232131	      7.29694172	      7.67999570	      0.18688442	      1.06086594	     -0.23106311	      0.00000000	      0.50000000	      0.00000000	      0.25000000	     45.54930151	    -11.33329916	      8.72486060	     37.20894027	      0.64941852	    -11.15187957	    -10.57218527	      0.00000000	      0.00000000	     69.46438827	      2.02695742	      1.05368662	    109.79054683	      1.91620653	      7.59346321	     -1.91281342	      0.00000000	      0.00000000	    -64.90767191	      4.10208622	     -7.45078921	     80.22602653	    -12.32814283	     16.13962662	     71.03263644	     46.46489182	      0.00000000	      0.00000000	     81.09954010	    -21.95558613	     21.98604784	     69.57892817	     45.78549482	      0.00000000	      0.00000000
      2.52000000	    -13.52184449	      7.29707875	      7.91549340	      0.18620017	      1.06091086	     -0.23126401	      0.00000000	      0.50000000	      0.00000000	      0.25000000	     44.94689980	    -11.52711521	      8.37402772	     36.55334013	      0.63797614	    -12.50465381	    -10.83879855	      0.00000000	      0.00000000	     70.20646741	      2.25507512	      1.23032936	    110.42877697	      1.92734575	      8.27236224	     -1.61232694	      0.00000000	      0.00000000	    -64.67167183	      3.64621579	     -7.08426268	     79.75445984	    -13.59614737	     15.85598738	     70.76365687	     46.66714359	      0.00000000	      0.00000000	     82.03091893	    -20.52607320	     23.57226637	     67.45953308	     45.58222492	      0.00000000	      0.00000000
      2.52500000	    -13.56056851	      7.25517070	      8.18120924	      0.18549740	      1.06083499	     -0.23162906	      0.00000000	      0.50000000	      0.00000000	      0.25000000	     44.42405779	    -11.71662370	      8.09516676	     35.88068371	      0.62623607	    -13.70733352	    -10.75498863	      0.00000000	      0.00000000	     71.04035380	      2.53157853	      1.45600483	    111.05536011	      1.93828169	      8.80129949	     -1.44482309	      0.00000000	      0.00000000	    -64.47385805	      3.40980162	     -7.14895553	     79.56136813	    -14.12871243	     15.68290041	     70.33079055	     46.66879217	      0.00000000	      0.00000000	     82.29415673	    -19.94970769	     24.05338768	     67.24738276	     45.59294671	      0.00000000	      0.00000000
      2.53000000	    -13.58461115	      7.19872179	      8.40275924	      0.18473121	      1.06069859	     -0.23189695	      0.00000000	      0.50000000	      0.00000000	      0.25000000	     43.95343615	    -11.86353914	      7.78962662	     35.30245754	      0.61614412	    -14.93024429	    -10.67863841	      0.00000000	      0.00000000	     71.86028757	      2.74118897	      1.63776107	    111.60528470	      1.94787968	      9.26871942	     -1.17959164	      0.00000000	      0.00000000	    -64.21806939	      3.10991001	     -7.20355507	     79.36778995	    -14.69492302	     15.70610661	     69.78967656	     46.71146869	      0.00000000	      0.00000000	     82.74420350	    -19.30050917	     24.76027999	     66.35139576	     45.50508718	      0.00000000	      0.00000000
      2.53500000	    -13.62516477	      7.20411393	      8.64120873	      0.18397306	      1.06049271	     -0.23221213	      0.00000000	      0.50000000	      0.00000000	      0.25000000	     43.54664943	    -12.09200111	      7.49399691	     34.84903850	      0.60823046	    -15.90561975	    -10.23376695	      0.00000000	      0.00000000	     72.67696741	      3.00687342	      1.72638694	    112.11496130	      1.95677522	      9.78838606	     -1.27640293	      0.00000000	      0.00000000	    -64.01270619	      2.84357155	     -7.55961759	     79.10918944	    -14.91132956	     15.70907353	     69.52929726	     46.69154104	      0.00000000	      0.00000000	     82.94034906	    -19.05176168	     24.93724522	     66.28773781	     45.50820251	      0.00000000	      0.00000000
      2.54000000	    -13.69461118	      7.03701824	      8.87608095	      0.18308816	      1.06002917	     -0.23245488	      0.00000000	      0.50000000	      0.00000000	      0.25000000	     43.19414301	    -12.11886700	      7.17674930	     34.42305472	      0.60079564	    -17.22188350	    -10.47848812	      0.00000000	      0.00000000	     73.59812696	      3.21405239	      2.05389054	    112.64603881	      1.96604427	     10.35088787	     -0.93814906	      0.00000000	      0.00000000	    -63.61780408	      2.56411903	     -7.46631203	     78.99435891	    -15.60272781	     15.95268679	     68.55930894	     46.67511873	      0.00000000	      0.00000000	     83.45294534	    -18.27878527	     25.95506855	     65.05544730	     45.38509602	      0.00000000	      0.00000000
      2.54500000	    -13.72663477	      7.01988062	      9.11623479	      0.18225535	      1.05968593	     -0.23277666	      0.00000000	      0.50000000	      0.00000000	      0.25000000	     42.83843355	    -12.33129786	      6.84369298	     34.08214256	      0.59484560	    -18.11638374	    -10.04040375	      0.00000000	      0.00000000	     74.40624788	      3.48964110	      2.15158065	    113.07250705	      1.97348754	     10.80422799	     -1.00698079	      0.00000000	      0.00000000	    -63.41967089	      2.31610443	     -7.80736112	     78.76654610	    -15.80364020	     16.04277651	     68.29924796	     46.66836004	      0.00000000	      0.00000000	     83.68828655	    -18.05036681	     26.14227772	     64.92471852	     45.37606278	      0.00000000	      0.00000000
      2.55000000	    -13.77121587	      6.87057854	      9.32758915	      0.18134180	      1.05910164	     -0.23290993	      0.00000000	      0.50000000	      0.00000000	      0.25000000	     42.55168847	    -12.35531902	      6.56447084	     33.83697968	      0.59056670	    -19.19394956	    -10.03257800	      0.00000000	      0.00000000	     75.27614062	      3.67587895	      2.42853010	    113.50487494	      1.98103378	     11.32445610	     -0.77067744	      0.00000000	      0.00000000	    -63.06776139	      2.01076637	     -7.80962432	     78.78572428	    -16.53435418	     16.73581447	     67.35776113	     46.43407949	      0.00000000	      0.00000000	     84.30686076	    -17.40801302	     27.24926414	     63.52240537	     45.11352216	      0.00000000	      0.00000000
      2.55500000	    -13.73822896	      6.80169595	      9.53106757	      0.18051970	      1.05877871	     -0.23317589	      0.00000000	      0.50000000	      0.00000000	      0.25000000	     42.17536505	    -12.45906732	      6.27186716	     33.58611512	      0.58618829	    -20.24115825	     -9.88174190	      0.00000000	      0.00000000	     76.00472221	      3.90597256	      2.56837094	    113.82804888	      1.98667423	     11.74992291	     -0.72841198	      0.00000000	      0.00000000	    -63.01202178	      1.78465425	     -8.04442618	     78.45758676	    -16.57154469	     16.22557818	     67.54780085	     46.27406783	      0.00000000	      0.00000000	     84.30352402	    -16.87256944	     26.45662607	     63.91107836	     45.05518778	      0.00000000	      0.00000000
      2.56000000	    -13.89784835	      6.61845743	      9.68706198	      0.17941943	      1.05764818	     -0.23321794	      0.00000000	      0.50000000	      0.00000000	      0.25000000	     42.18545753	    -12.38895971	      6.12430633	     33.65259672	      0.58734861	    -21.09427845	     -9.84118573	      0.00000000	      0.00000000	     77.03557365	      3.99594054	      2.79760462	    114.19834001	      1.99313703	     12.21703972	     -0.63951501	      0.00000000	      0.00000000	    -62.49020333	      1.43261039	     -8.10721901	     78.71280848	    -17.34156250	     17.63081295	     66.16481149	     46.21407725	      0.00000000	      0.00000000	     85.06844350	    -16.68903438	     28.27742666	     62.39318470	     44.91515990	      0.00000000	      0.00000000
      2.56500000	    -13.87968292	      6.57271867	      9.85345320	      0.17845220	      1.05694674	     -0.23333841	      0.00000000	      0.50000000	      0.00000000	      0.25000000	     41.99187348	    -12.45974695	      5.89252789	     33.70691579	      0.58829666	    -22.03156716	     -9.83238161	      0.00000000	      0.00000000	     77.77861645	      4.15686497	      2.86599201	    114.46297309	      1.99775575	     12.73929716	     -0.59158734	      0.00000000	      0.00000000	    -62.38750846	      1.11882035	     -8.41773408	     78.56850440	    -17.44583090	     17.56567413	     66.02734459	     46.11955275	      0.00000000	      0.00000000	     85.20090400	    -16.31091803	     27.86906182	     62.56650864	     44.85872372	      0.00000000	      0.00000000
      2.57000000	    -14.08645176	      6.38590471	      9.98561151	      0.17729326	      1.05553986	     -0.23354804	      0.00000000	      0.50000000	      0.00000000	      0.25000000	     42.17747526	    -12.36595155	      5.81123707	     33.99506219	      0.59332576	    -22.84867281	     -9.86367247	      0.00000000	      0.00000000	     78.83410875	      4.27720524	      3.07950629	    114.72836914	      2.00238779	     13.14957676	     -0.55822936	      0.00000000	      0.00000000	    -61.84053489	      0.80363926	     -8.50740341	     78.79811877	    -17.96631270	     18.67650670	     64.84867663	     45.87312258	      0.00000000	      0.00000000	     85.77390837	    -16.10417561	     29.14487203	     61.44283735	     44.68479195	      0.00000000	      0.00000000
      2.57500000	    -14.16109339	      6.29775763	     10.12594968	      0.17617375	      1.05434539	     -0.23365464	      0.00000000	      0.50000000	      0.00000000	      0.25000000	     42.24442631	    -12.34500148	      5.70507453	     34.37588060	      0.59997230	    -23.58443159	     -9.97905769	      0.00000000	      0.00000000	     79.67366219	      4.40474642	      3.13330313	    114.92096473	      2.00574921	     13.66886255	     -0.63227258	      0.00000000	      0.00000000	    -61.55140405	      0.47695182	     -8.76172903	     78.96595715	    -18.32704729	     19.47338006	     64.15814413	     45.85211614	      0.00000000	      0.00000000	     86.13772722	    -15.97451245	     29.74728981	     61.07396709	     44.52734235	      0.00000000	      0.00000000
